<svg xmlns="http://www.w3.org/2000/svg" width="177.924" height="96.47" viewBox="0 0 177.924 96.47"><defs><style>.a{fill:#1c1c1b;}.b{fill:#27348a;}.c{fill:#e30513;}.d{fill:#faea4c;}.e{fill:#595a5b;}</style></defs><g transform="translate(173.998 -331.138)"><g transform="translate(174 345)"><g transform="translate(-595.093 4)"><g transform="translate(247.095 -17.862)"><path class="a" d="M228.982,142.343c0-.17-1.53-13.408-2.121-18.732-.022-5.076-3.507-8.358-8.9-8.358-1.76,0-5.524,2.234-8.258,4.029.178-1.778.2-4.5.243-5.394.03-.6-5.389,2.434-9.562,3.094l-.343.057-.235,2.56.435.565h.9c1.738,0,2.569.5,2.569,3.312l.656,15.307c0,1.634.109,3.573.165,4.781s4.75.834,4.75-.569c0-4.733.821-17.189.952-20.245a10.685,10.685,0,0,1,6.259-2.395c2.608,0,4.046,1.552,4.594,4.611.743,4.259.374,18.193.361,18.471a.961.961,0,0,0,.617,1.069,4.568,4.568,0,0,0,1.765.387C224.853,144.977,228.982,144.277,228.982,142.343Z" transform="translate(-112.969 -64.349)"/><path class="a" d="M180.593,1.542A6.589,6.589,0,0,1,183.2,5.571a7.428,7.428,0,0,1-.622,5.107A5.294,5.294,0,0,1,172.5,8.939c-.022-.317-.048-.639-.074-.956a2.842,2.842,0,0,1,1.139-2.564,3.568,3.568,0,0,1,2.495-.787,4.829,4.829,0,0,1,1.187.213,2.608,2.608,0,0,1,1.738,1.5,3.451,3.451,0,0,1,.156,2.629,1.769,1.769,0,0,1-.513.769.7.7,0,0,1-.839.1,2.056,2.056,0,0,1-.582-.435.435.435,0,0,1,.035-.691,2.175,2.175,0,0,1,.3-.226,2.285,2.285,0,0,0,.435-.382.269.269,0,0,0,.048-.326,2.073,2.073,0,0,0-.93-.93.674.674,0,0,0-.5,0,2.147,2.147,0,0,0-1.008.643,2.951,2.951,0,0,0-.7,2.66,2.26,2.26,0,0,0,1.6,1.673,2.677,2.677,0,0,0,2.086-.083,4.6,4.6,0,0,0,2.79-3.912,2.643,2.643,0,0,0-.3-1.417A5.915,5.915,0,0,0,179.1,4.136a5.92,5.92,0,0,0-2.408-1.047,7.728,7.728,0,0,0-1.182-.117c-.969-.035-1.938-.057-2.908-.078-2.864-.057-5.733-.074-8.6-.1q-5.215-.048-10.431-.03h-3.542c-1.838,0-3.677,0-5.515.043-1.93.026-3.859.057-5.789.1a23.444,23.444,0,0,0-2.343.139,4.69,4.69,0,0,0-1.682.509,6.985,6.985,0,0,0-2.608,2.3,4.347,4.347,0,0,0-.5,1.043,2.608,2.608,0,0,0-.03,1.591,4.994,4.994,0,0,0,2.851,3.281,2.8,2.8,0,0,0,3.177-.869,2.256,2.256,0,0,0,.539-1.66,2.921,2.921,0,0,0-1.021-1.964,2.851,2.851,0,0,0-.617-.391.869.869,0,0,0-.869.039,2.212,2.212,0,0,0-.756.73.4.4,0,0,0,.109.617,2.552,2.552,0,0,0,.256.161c.135.083.278.156.413.243.217.148.252.265.126.487a1.608,1.608,0,0,1-.969.756.5.5,0,0,1-.5-.161,2.317,2.317,0,0,1-.687-1.243,3.368,3.368,0,0,1,.1-1.7A2.677,2.677,0,0,1,135.6,5.045a4.4,4.4,0,0,1,3.512.409,3.068,3.068,0,0,1,.317.209,2.317,2.317,0,0,1,.987,1.665,5.685,5.685,0,0,1-.787,3.812,5.581,5.581,0,0,1-3.82,2.629,4.655,4.655,0,0,1-3.89-1.078,6.593,6.593,0,0,1-2.195-3.477A7.267,7.267,0,0,1,130.2,4a6.432,6.432,0,0,1,2.556-2.764C135.771-.471,176.89-.432,180.593,1.542Z" transform="translate(-73.186 -0.005)"/><path class="a" d="M160.152,25.639c-.026-1.169,0-2.343.026-3.512V20.711a.391.391,0,0,1,.126-.309,10.867,10.867,0,0,1,.834-.787,1.108,1.108,0,0,1,.73-.3c.217,0,.287.057.348.261a7.54,7.54,0,0,1,.143.821,4.73,4.73,0,0,1,.065.652c0,.187,2.386,30.858,2.417,30.993s.022.174-.126.2a1.568,1.568,0,0,0-.391.17,8.691,8.691,0,0,0-1.021.661,2.3,2.3,0,0,1-1.738.409,2.838,2.838,0,0,1-1.087-.287.6.6,0,0,1-.356-.682C160.144,52.242,160.157,25.978,160.152,25.639Z" transform="translate(-90.522 -10.926)"/><path class="a" d="M218.077,25.639c.022-1.169,0-2.343-.03-3.512V20.711a.382.382,0,0,0-.13-.309,10.788,10.788,0,0,0-.826-.787,1.121,1.121,0,0,0-.735-.3c-.217,0-.282.057-.343.261a5.914,5.914,0,0,0-.143.821,4.74,4.74,0,0,0-.07.652c0,.187-2.382,30.858-2.416,30.993s0,.174.13.2a1.569,1.569,0,0,1,.391.17,8.629,8.629,0,0,1,1.017.661,2.312,2.312,0,0,0,1.738.409,2.86,2.86,0,0,0,1.087-.287.6.6,0,0,0,.356-.682C218.086,52.242,218.069,25.978,218.077,25.639Z" transform="translate(-120.636 -10.926)"/><path class="a" d="M189.035,18.31a8.232,8.232,0,0,1-1.2.474,35.282,35.282,0,0,1-4.585,1.173c-.461.087-.921.2-1.386.269a10.752,10.752,0,0,1-2.895.1c-1.208-.143-2.417-.33-3.62-.53-1.639-.269-3.277-.556-4.894-.961a2.608,2.608,0,0,1-.661-.222c.083-.083.178-.065.261-.074.817-.065,1.634-.056,2.451-.061,2.495-.022,4.989-.03,7.484-.048,1.738,0,3.438-.043,5.159-.065Z" transform="translate(-95.996 -10.354)"/><path class="b" d="M179.36,53.259V27.4a.739.739,0,0,1,.165-.509,2.742,2.742,0,0,1,1.139-.465c.183.078.156.7.17.969.03.869.113,1.717.217,2.569.035.278.126.543.161.817.087.769.083,1.547.1,2.321,0,.7.274,19.64.248,19.992a1.8,1.8,0,0,1-1.056,1.334c-.843,0-1.108-.5-1.147-.839A2.851,2.851,0,0,1,179.36,53.259Z" transform="translate(-101.403 -14.945)"/><path class="c" d="M204.552,53.259V27.4a.739.739,0,0,0-.165-.509,2.716,2.716,0,0,0-1.139-.465c-.178.078-.156.7-.165.969-.035.869-.113,1.717-.222,2.569-.035.278-.126.543-.156.817-.087.769-.087,1.547-.1,2.321,0,.7-.278,19.64-.248,19.992a1.786,1.786,0,0,0,1.034,1.352c.869,0,1.108-.5,1.147-.839A2.765,2.765,0,0,0,204.552,53.259Z" transform="translate(-114.408 -14.945)"/><path class="d" d="M193.529,53.255c0,1.173-.039,3.955-.039,3.955-.174.265-1.582.243-1.83.078-.07-.1,0-15.529,0-16.681V34.232a4.254,4.254,0,0,1,.087-.9,1.334,1.334,0,0,1,.313-.6c.109-.126.178-.109.217.056s.6.435.626.669c.074.7.135,1.391.165,2.091a5.119,5.119,0,0,0,.13,1,9.708,9.708,0,0,1,.209,2.034C193.4,39.052,193.5,52.92,193.529,53.255Z" transform="translate(-108.343 -18.462)"/><path class="a" d="M104.622,113.48h.391l.661-3.881-.487-.482-8.758.178c.23-2.647.435-4.077.435-4.094l.052-.356-1.843-.735-.209.209a33.736,33.736,0,0,1-7.523,5.528l-.209.1a16.617,16.617,0,0,0-.378,2.247.665.665,0,0,0,.474.708h.23c2.608.122,3.081.791,3.081,2.608v15.168c0,5.689,2.277,8.14,8.1,7.91,3.985-.161,6.767-3.994,6.767-3.994a6.861,6.861,0,0,0-.917-2.386c-.535-.535-2.534,1.3-4.433,1.3-3.255,0-4.346-1.334-4.346-5.285,0-6.776.213-11.809.4-14.955Z" transform="translate(-49.048 -58.864)"/><path class="a" d="M159.821,135.338l-.721.435a18.654,18.654,0,0,1-11.213,4.1h-.156a6.954,6.954,0,0,1-5.063-2.1c-1.978-2.021-2.986-5.215-2.838-9.036l.022-.526,16.259.639h.174l1.052-.891.039-.13a14.4,14.4,0,0,0,.5-3.042c.239-6.033-2.912-9.357-9.105-9.605h-.435c-7.306,0-13.664,6.915-14,15.346A14.539,14.539,0,0,0,138.2,141.6a11.3,11.3,0,0,0,8.2,3.29h.578c8.523-.356,12.6-5.089,14.247-7.632a2.7,2.7,0,0,0-.369-1.738C160.525,134.92,159.821,135.338,159.821,135.338Zm-12.665-16.207h.287c2.995.113,4.516,1.738,4.4,4.685-.035.965-.156,1.087-1.143,1.147l-10.392.1c.956-3.646,3.581-5.937,6.863-5.937Z" transform="translate(-75.94 -65.123)"/><path class="a" d="M303.809,135.869l-.717.435a18.689,18.689,0,0,1-11.23,4.116h-.156a6.915,6.915,0,0,1-5.059-2.1c-1.982-2.017-2.99-5.215-2.842-9.036l.026-.522,16.255.635h.174l1.052-.9.039-.13a14.4,14.4,0,0,0,.5-3.042c.239-6.037-2.912-9.362-9.105-9.605H292.3c-7.306,0-13.664,6.91-13.995,15.346a14.549,14.549,0,0,0,3.868,11.07,11.331,11.331,0,0,0,8.158,3.281h.578c8.523-.356,12.6-5.089,14.247-7.632a2.579,2.579,0,0,0-.369-1.712C304.452,135.5,303.809,135.869,303.809,135.869Zm-12.66-16.207h.287c2.99.117,4.511,1.738,4.394,4.69-.035.965-.152,1.082-1.143,1.143l-10.392.1c.926-3.651,3.551-5.937,6.837-5.937Z" transform="translate(-157.343 -65.428)"/><path class="e" d="M5.65,200.78a3.155,3.155,0,0,1-.2,1.139,2.721,2.721,0,0,1-.608.926,2.86,2.86,0,0,1-.965.622,3.478,3.478,0,0,1-1.3.23A6.493,6.493,0,0,1,0,203.17v-2.147H.326c.191,0,.287.109.3.326v.243a4.3,4.3,0,0,0,.026.543c.026.217,0,.435.026.613a4.48,4.48,0,0,0,1.912.365,2.7,2.7,0,0,0,1.021-.161,2.047,2.047,0,0,0,.756-.478,2.073,2.073,0,0,0,.478-.708,2.36,2.36,0,0,0,.161-.869,1.6,1.6,0,0,0-.2-.843,1.738,1.738,0,0,0-.543-.548,3.294,3.294,0,0,0-.782-.382c-.3-.1-.582-.191-.869-.283s-.608-.2-.9-.326a3.129,3.129,0,0,1-.756-.435A2.1,2.1,0,0,1,.4,197.4a2.3,2.3,0,0,1-.2-1.034,2.443,2.443,0,0,1,.174-.934,2.386,2.386,0,0,1,.543-.787,2.43,2.43,0,0,1,.869-.543,3.311,3.311,0,0,1,1.2-.2,6.263,6.263,0,0,1,2.469.556v1.969H5.12c-.191,0-.269-.122-.287-.339,0-.07-.026-.5-.065-1.278a4.533,4.533,0,0,0-1.791-.339,2.755,2.755,0,0,0-.926.152,1.738,1.738,0,0,0-.665.4,1.908,1.908,0,0,0-.556,1.3,1.517,1.517,0,0,0,.217.813,1.738,1.738,0,0,0,.543.543,4.275,4.275,0,0,0,.774.382c.287.091.582.2.869.3s.613.2.9.326a3.537,3.537,0,0,1,.761.435,2.1,2.1,0,0,1,.556.678A2.117,2.117,0,0,1,5.65,200.78Z" transform="translate(0 -109.629)"/><path class="e" d="M22.938,200.666a2.608,2.608,0,0,1,.965.691,3.094,3.094,0,0,1,.608,1.1,4.811,4.811,0,0,1,.2,1.439,4.663,4.663,0,0,1-.2,1.426,3.212,3.212,0,0,1-.608,1.1,2.725,2.725,0,0,1-.965.691,3.242,3.242,0,0,1-1.3.243,3.3,3.3,0,0,1-1.3-.243,2.816,2.816,0,0,1-.978-.691,2.994,2.994,0,0,1-.6-1.1,4.655,4.655,0,0,1-.213-1.426,4.807,4.807,0,0,1,.213-1.439,2.89,2.89,0,0,1,.6-1.1,2.708,2.708,0,0,1,1-.691,3.224,3.224,0,0,1,1.3-.256A3.164,3.164,0,0,1,22.938,200.666Zm-.243,5.985a2.038,2.038,0,0,0,.761-.6,2.56,2.56,0,0,0,.435-.934,5.12,5.12,0,0,0,0-2.443,2.56,2.56,0,0,0-.435-.934,2.077,2.077,0,0,0-.761-.613,2.5,2.5,0,0,0-1.047-.2,2.543,2.543,0,0,0-1.056.2,2.043,2.043,0,0,0-.761.613,2.707,2.707,0,0,0-.435.934,5.12,5.12,0,0,0,0,2.443,2.708,2.708,0,0,0,.435.934,2.008,2.008,0,0,0,.761.6,2.543,2.543,0,0,0,1.056.2,2.5,2.5,0,0,0,1.047-.209Z" transform="translate(-10.482 -113.31)"/><path class="e" d="M41.188,203.1v.269H38.58V203.1c0-.148.091-.23.269-.243h.313c.109,0,.243-.03.391-.03v-8.792h-.7c-.178,0-.269-.1-.269-.243v-.274h1.625v9.336h.73A.234.234,0,0,1,41.188,203.1Z" transform="translate(-21.812 -109.415)"/><path class="e" d="M56.769,207.185v.27h-1.33c-.122,0-.2-.052-.2-.174l-.057-1a3.733,3.733,0,0,1-1.082.934,2.76,2.76,0,0,1-1.373.352,2.509,2.509,0,0,1-.991-.174,1.917,1.917,0,0,1-.691-.517,2.13,2.13,0,0,1-.435-.8,3.764,3.764,0,0,1-.148-1.06V201.24h-.7c-.178,0-.274-.1-.274-.243v-.256h1.63v4.311a2.355,2.355,0,0,0,.435,1.5,1.617,1.617,0,0,0,1.33.543,2.438,2.438,0,0,0,1.221-.339,3.733,3.733,0,0,0,1.03-.939V201.24h-.7c-.178,0-.274-.1-.274-.243v-.256h1.643v6.211h.7A.232.232,0,0,1,56.769,207.185Z" transform="translate(-27.975 -113.497)"/><path class="e" d="M77.076,206.417a2.174,2.174,0,0,1-.391.378,2.367,2.367,0,0,1-.53.313,4.787,4.787,0,0,1-.652.187,3.044,3.044,0,0,1-.73.083,2.76,2.76,0,0,1-1.169-.243,2.469,2.469,0,0,1-.921-.678,3.086,3.086,0,0,1-.6-1.087,4.533,4.533,0,0,1-.213-1.465,4.633,4.633,0,0,1,.213-1.413,3.294,3.294,0,0,1,.587-1.1,2.682,2.682,0,0,1,.961-.713,2.99,2.99,0,0,1,1.3-.243,3.449,3.449,0,0,1,.717.1c.313.065.6.148.83.213l.352.109v1.7h-.326c-.191,0-.283-.109-.3-.326a1.208,1.208,0,0,0,0-.165c0-.1-.026-.217-.039-.378s0-.339-.026-.517a3.673,3.673,0,0,0-1.156-.23,2.474,2.474,0,0,0-1.03.2,2.038,2.038,0,0,0-.761.6,2.808,2.808,0,0,0-.474.939,4.312,4.312,0,0,0-.161,1.234,4.437,4.437,0,0,0,.161,1.26,2.608,2.608,0,0,0,.474.926,1.99,1.99,0,0,0,.735.569,2.229,2.229,0,0,0,.965.2,2.66,2.66,0,0,0,1.369-.369,2.845,2.845,0,0,0,.339-.256c.083-.083.135-.109.191-.109a.161.161,0,0,1,.135.07Z" transform="translate(-40.633 -113.324)"/><path class="e" d="M92.281,203.334v.269H89.673v-.269c0-.148.1-.23.274-.243h.3c.109,0,.248-.03.4-.03v-5.672h-.7c-.178,0-.274-.1-.274-.243v-.269h1.63v6.211h.7C92.185,203.087,92.281,203.186,92.281,203.334Zm-1.847-8.575a.69.69,0,0,1-.057-.23.643.643,0,0,1,.057-.23.552.552,0,0,1,.122-.191.57.57,0,0,1,.191-.135.561.561,0,0,1,.23-.043.552.552,0,0,1,.435.178.587.587,0,0,1,.135.191.708.708,0,0,1,.052.23.686.686,0,0,1-.052.23.622.622,0,0,1-.135.187.608.608,0,0,1-.191.126.661.661,0,0,1-.23.052.639.639,0,0,1-.23-.052.609.609,0,0,1-.191-.126A.578.578,0,0,1,90.434,194.759Z" transform="translate(-50.692 -109.646)"/><path class="e" d="M105.608,200.666a2.573,2.573,0,0,1,.961.691,3.042,3.042,0,0,1,.613,1.1,4.811,4.811,0,0,1,.2,1.439,4.664,4.664,0,0,1-.2,1.426,3.152,3.152,0,0,1-.613,1.1,2.669,2.669,0,0,1-.961.691,3.272,3.272,0,0,1-1.3.243,3.338,3.338,0,0,1-1.3-.243,2.838,2.838,0,0,1-.974-.691,2.93,2.93,0,0,1-.6-1.1,4.655,4.655,0,0,1-.217-1.426,4.8,4.8,0,0,1,.217-1.439,2.833,2.833,0,0,1,.6-1.1,2.729,2.729,0,0,1,.974-.691,3.258,3.258,0,0,1,1.3-.256A3.194,3.194,0,0,1,105.608,200.666Zm-.248,5.985a2.008,2.008,0,0,0,.761-.6,2.5,2.5,0,0,0,.435-.934,4.981,4.981,0,0,0,0-2.443,2.5,2.5,0,0,0-.435-.934,2.043,2.043,0,0,0-.761-.613,2.468,2.468,0,0,0-1.043-.2,2.529,2.529,0,0,0-1.056.2,2.043,2.043,0,0,0-.761.613,2.708,2.708,0,0,0-.435.934,4.981,4.981,0,0,0,0,2.443,2.707,2.707,0,0,0,.435.934,2.008,2.008,0,0,0,.761.6,2.529,2.529,0,0,0,1.056.2,2.468,2.468,0,0,0,1.043-.209Z" transform="translate(-57.222 -113.31)"/><path class="e" d="M128.586,207.043v.269h-1.63V203a2.347,2.347,0,0,0-.435-1.5,1.608,1.608,0,0,0-1.326-.53,2.342,2.342,0,0,0-1.239.339,3.69,3.69,0,0,0-1.017.939v4.516h.721a.226.226,0,0,1,.256.243v.269H121.31v-.269c0-.148.078-.23.256-.243h.313c.109,0,.243-.03.409-.03V201.1h-.721a.224.224,0,0,1-.256-.243V200.6h1.33a.178.178,0,0,1,.2.161l.052,1.017a3.911,3.911,0,0,1,1.074-.934,2.729,2.729,0,0,1,1.369-.352,2.482,2.482,0,0,1,.978.174,1.934,1.934,0,0,1,.7.5,2.129,2.129,0,0,1,.435.8,3.612,3.612,0,0,1,.148,1.06V206.8h.708A.241.241,0,0,1,128.586,207.043Z" transform="translate(-68.586 -113.355)"/><path class="e" d="M147.764,200.6a2.421,2.421,0,0,1,.839.574,2.5,2.5,0,0,1,.556.934,3.533,3.533,0,0,1,.2,1.26.374.374,0,0,1-.052.2.148.148,0,0,1-.135.057H144.3v.122a4.515,4.515,0,0,0,.174,1.343,2.8,2.8,0,0,0,.5.961,2.06,2.06,0,0,0,.787.587,2.564,2.564,0,0,0,1.03.2,2.781,2.781,0,0,0,.869-.126,3.367,3.367,0,0,0,.626-.243,2.274,2.274,0,0,0,.4-.256.387.387,0,0,1,.217-.109.17.17,0,0,1,.139.07l.174.217a2,2,0,0,1-.435.378,2.729,2.729,0,0,1-.6.3,5.551,5.551,0,0,1-.7.2,3.424,3.424,0,0,1-.761.07,3.229,3.229,0,0,1-1.265-.23,2.66,2.66,0,0,1-.974-.7,3.177,3.177,0,0,1-.626-1.126,4.925,4.925,0,0,1-.23-1.534,4.225,4.225,0,0,1,.217-1.343,3.125,3.125,0,0,1,.6-1.06,2.538,2.538,0,0,1,.952-.691,3.2,3.2,0,0,1,1.3-.256A2.743,2.743,0,0,1,147.764,200.6Zm-1.982.435a2.086,2.086,0,0,0-.717.465,2.273,2.273,0,0,0-.491.73,3.45,3.45,0,0,0-.243.965h4.45a3.082,3.082,0,0,0-.148-.978,2.087,2.087,0,0,0-.435-.717,1.739,1.739,0,0,0-.652-.465,2.112,2.112,0,0,0-.843-.161,2.49,2.49,0,0,0-.921.174Z" transform="translate(-81.211 -113.304)"/><path class="e" d="M167.485,205.285a2.086,2.086,0,0,1-.161.826,1.856,1.856,0,0,1-.461.652,2.129,2.129,0,0,1-.748.435,2.9,2.9,0,0,1-1,.161,5.677,5.677,0,0,1-1.995-.378v-1.643h.326c.191,0,.287.109.3.326a1.105,1.105,0,0,0,0,.165,1.97,1.97,0,0,0,.026.352c.026.152.026.313.039.487a3.529,3.529,0,0,0,1.3.217,2.074,2.074,0,0,0,.748-.122,1.673,1.673,0,0,0,.543-.326,1.374,1.374,0,0,0,.339-.474,1.691,1.691,0,0,0,.109-.587.909.909,0,0,0-.165-.556,1.52,1.52,0,0,0-.435-.378,2.607,2.607,0,0,0-.6-.269c-.23-.07-.461-.152-.691-.217s-.474-.152-.691-.23a2.207,2.207,0,0,1-.6-.326,1.625,1.625,0,0,1-.435-.478,1.373,1.373,0,0,1-.165-.7,1.512,1.512,0,0,1,.148-.691,1.882,1.882,0,0,1,.435-.582,2.174,2.174,0,0,1,.708-.4,2.769,2.769,0,0,1,.921-.148,5.611,5.611,0,0,1,1.791.352V202.4h-.326c-.187,0-.282-.109-.3-.326a.793.793,0,0,0,0-.161,1.793,1.793,0,0,0-.026-.339c-.026-.148-.026-.313-.039-.474a3.369,3.369,0,0,0-1.074-.178,2.028,2.028,0,0,0-.665.109,1.377,1.377,0,0,0-.513.274,1.3,1.3,0,0,0-.339.435,1,1,0,0,0-.109.491.808.808,0,0,0,.161.526,1.3,1.3,0,0,0,.435.356,3.77,3.77,0,0,0,.6.256l.691.217c.23.065.478.161.7.243a2.39,2.39,0,0,1,.6.326,1.566,1.566,0,0,1,.435.474A1.387,1.387,0,0,1,167.485,205.285Z" transform="translate(-92.196 -113.305)"/><path class="e" d="M195.953,203.111v.2h-1.26a.174.174,0,0,1-.191-.174l-.065-1.074a3.548,3.548,0,0,1-1.047.978,2.556,2.556,0,0,1-1.356.352,2.351,2.351,0,0,1-1.938-.869,4.072,4.072,0,0,1-.7-2.608,4.5,4.5,0,0,1,.191-1.369,3.324,3.324,0,0,1,.569-1.113,2.759,2.759,0,0,1,.926-.748,2.842,2.842,0,0,1,1.26-.269,2.525,2.525,0,0,1,1.2.256,2.347,2.347,0,0,1,.869.73v-3.477h-.7a.236.236,0,0,1-.269-.243v-.274h1.612v9.383h.652a.224.224,0,0,1,.256.243Zm-1.547-5.1a2.46,2.46,0,0,0-.869-.817,2.547,2.547,0,0,0-2.117-.026,2.173,2.173,0,0,0-.748.626,2.791,2.791,0,0,0-.461.947,4.2,4.2,0,0,0-.152,1.208,3.655,3.655,0,0,0,.556,2.225,1.917,1.917,0,0,0,1.6.7,2.217,2.217,0,0,0,1.208-.352,3.478,3.478,0,0,0,.973-.961Z" transform="translate(-107.083 -109.353)"/><path class="e" d="M214.1,200.6a2.421,2.421,0,0,1,.839.574,2.5,2.5,0,0,1,.556.934,3.535,3.535,0,0,1,.2,1.26.374.374,0,0,1-.052.2.152.152,0,0,1-.135.056h-4.872v.122a4.515,4.515,0,0,0,.174,1.343,2.8,2.8,0,0,0,.5.961,2.06,2.06,0,0,0,.787.587,2.564,2.564,0,0,0,1.03.2,2.782,2.782,0,0,0,.869-.126,3.367,3.367,0,0,0,.626-.243,2.275,2.275,0,0,0,.4-.256.387.387,0,0,1,.217-.109.17.17,0,0,1,.139.07l.174.217a2,2,0,0,1-.435.378,2.728,2.728,0,0,1-.6.3,5.554,5.554,0,0,1-.7.2,3.423,3.423,0,0,1-.761.07,3.229,3.229,0,0,1-1.265-.23,2.66,2.66,0,0,1-.974-.7,3.177,3.177,0,0,1-.626-1.126,4.924,4.924,0,0,1-.23-1.534,4.225,4.225,0,0,1,.217-1.343,3.124,3.124,0,0,1,.6-1.06,2.508,2.508,0,0,1,.952-.691,3.2,3.2,0,0,1,1.3-.256A2.743,2.743,0,0,1,214.1,200.6Zm-1.982.435a2.086,2.086,0,0,0-.717.465,2.273,2.273,0,0,0-.491.73,3.452,3.452,0,0,0-.243.965h4.451a3.215,3.215,0,0,0-.148-.978,2.087,2.087,0,0,0-.435-.717,1.738,1.738,0,0,0-.652-.465,2.112,2.112,0,0,0-.843-.161,2.49,2.49,0,0,0-.921.174Z" transform="translate(-118.718 -113.304)"/><path class="e" d="M251.036,194.679h-.747V203.2h.869c.178,0,.274.1.274.243v.269h-2.942v-.269c0-.148.1-.23.274-.243h.934V195.2l-3.777,6.741a.287.287,0,0,1-.269.174h-.109a.3.3,0,0,1-.274-.174l-3.881-6.719v8.019h.913a.236.236,0,0,1,.269.243v.269H239.64v-.269c0-.148.091-.23.269-.243h.869v-8.519h-.869a.235.235,0,0,1-.269-.248v-.256h1.625a.505.505,0,0,1,.152,0c.039,0,.065.057.109.109l3.877,6.676a2.361,2.361,0,0,1,.178.409l.083-.217a1.075,1.075,0,0,1,.1-.2l3.772-6.663c.039-.052.065-.1.109-.109a.461.461,0,0,1,.148,0h1.63v.256c0,.152-.1.23-.274.248Z" transform="translate(-135.488 -109.809)"/><path class="e" d="M278.407,206.992v.269h-1.156a.239.239,0,0,1-.256-.187l-.1-.869c-.191.174-.365.339-.543.487a2.911,2.911,0,0,1-.582.369,3.707,3.707,0,0,1-.639.23,3.477,3.477,0,0,1-.761.078,2.174,2.174,0,0,1-.665-.109,1.568,1.568,0,0,1-.991-.839,2.084,2.084,0,0,1-.148-.8,1.413,1.413,0,0,1,.243-.791,1.912,1.912,0,0,1,.761-.635,5.3,5.3,0,0,1,1.343-.435,11.024,11.024,0,0,1,1.956-.191v-.7a2.226,2.226,0,0,0-.4-1.439,1.456,1.456,0,0,0-1.208-.5,2.135,2.135,0,0,0-.826.139,2.888,2.888,0,0,0-.569.3,2.609,2.609,0,0,0-.4.287.434.434,0,0,1-.256.148.209.209,0,0,1-.2-.122l-.109-.2a3.842,3.842,0,0,1,1.113-.8,3.156,3.156,0,0,1,1.3-.269,2.312,2.312,0,0,1,.952.174,1.678,1.678,0,0,1,.678.491,2.321,2.321,0,0,1,.4.787,3.368,3.368,0,0,1,.139,1.017v3.877h.621C278.311,206.744,278.407,206.844,278.407,206.992Zm-1.534-2.986a11.35,11.35,0,0,0-1.656.148,4.865,4.865,0,0,0-1.139.326,1.738,1.738,0,0,0-.665.478.991.991,0,0,0-.217.648,1.278,1.278,0,0,0,.109.587,1.108,1.108,0,0,0,.3.4,1.14,1.14,0,0,0,.435.23,1.583,1.583,0,0,0,.517.07,2.874,2.874,0,0,0,.717-.083,2.312,2.312,0,0,0,.613-.23,3.772,3.772,0,0,0,.526-.365c.165-.135.313-.3.478-.461Z" transform="translate(-154.106 -113.303)"/><path class="e" d="M296.909,200.637l-.083.435a.122.122,0,0,1-.135.109.694.694,0,0,1-.122-.026c-.056,0-.1-.043-.178-.07a1.305,1.305,0,0,0-.283-.052,2.315,2.315,0,0,0-.369-.03,1.739,1.739,0,0,0-1.26.478,3.377,3.377,0,0,0-.8,1.369v3.838c.556.03.635.03.717.03.165,0,.261.065.261.243v.269H292.05v-.269c0-.178.1-.23.261-.243.078,0,.161,0,.717-.03v-5.663c-.556-.026-.639-.026-.717-.026-.165,0-.261-.065-.261-.243V200.5h1.3a.257.257,0,0,1,.165.039.234.234,0,0,1,.052.161l.052,1.426a3.234,3.234,0,0,1,.869-1.3,2,2,0,0,1,1.343-.461,2.474,2.474,0,0,1,.556.065,2.027,2.027,0,0,1,.517.213Z" transform="translate(-165.12 -113.281)"/><path class="e" d="M315.178,203.126v.269h-.869a.326.326,0,0,1-.161-.039.608.608,0,0,1-.148-.122l-2.838-3.042a.738.738,0,0,0-.217-.178.83.83,0,0,0-.3-.039h-.3v2.86h.7c.178,0,.274.1.274.243v.269H308.72v-.269c0-.148.1-.23.274-.243h.309c.109,0,.248-.03.4-.03V194.06h-.7c-.178,0-.274-.1-.274-.243v-.256h1.63v6.011h.313a.539.539,0,0,0,.174-.03.435.435,0,0,0,.178-.139l2.334-2.225h-.339c-.178,0-.274-.1-.274-.243v-.269h2.09v.269c0,.148-.078.23-.256.243H314.1l-2.416,2.295-.135.122a.481.481,0,0,1-.139.109.869.869,0,0,1,.191.122c.056.057.1.109.148.165l2.647,2.877h.53A.251.251,0,0,1,315.178,203.126Z" transform="translate(-174.545 -109.438)"/><path class="e" d="M332.264,200.6a2.443,2.443,0,0,1,.843.574,2.609,2.609,0,0,1,.556.934,3.641,3.641,0,0,1,.2,1.26.374.374,0,0,1-.052.2.148.148,0,0,1-.135.057H328.8v.122a4.377,4.377,0,0,0,.178,1.343,2.8,2.8,0,0,0,.5.961,2.06,2.06,0,0,0,.787.587,2.565,2.565,0,0,0,1.03.2,2.781,2.781,0,0,0,.869-.126,3.136,3.136,0,0,0,.626-.243,2.333,2.333,0,0,0,.409-.256.365.365,0,0,1,.217-.109.161.161,0,0,1,.135.07l.174.217a2,2,0,0,1-.435.378,2.728,2.728,0,0,1-.6.3,5.557,5.557,0,0,1-.7.2,3.4,3.4,0,0,1-.761.07,3.191,3.191,0,0,1-1.26-.23,2.638,2.638,0,0,1-.978-.7,3.177,3.177,0,0,1-.626-1.126,4.923,4.923,0,0,1-.23-1.534,4.224,4.224,0,0,1,.217-1.343,3.125,3.125,0,0,1,.6-1.06,2.574,2.574,0,0,1,.952-.691,3.212,3.212,0,0,1,1.3-.256A2.737,2.737,0,0,1,332.264,200.6Zm-1.982.435a2.126,2.126,0,0,0-.717.465,2.273,2.273,0,0,0-.491.73,3.605,3.605,0,0,0-.243.965h4.464a3.081,3.081,0,0,0-.148-.978,2.02,2.02,0,0,0-.435-.717,1.689,1.689,0,0,0-.652-.465,2.107,2.107,0,0,0-.839-.161,2.53,2.53,0,0,0-.939.174Z" transform="translate(-185.524 -113.304)"/><path class="e" d="M347.67,204.059a1.577,1.577,0,0,1-.378-1.169v-4.611h-.965a.187.187,0,0,1-.135-.057.122.122,0,0,1-.043-.109v-.243l1.156-.083.161-2.412a.148.148,0,0,1,.057-.109.139.139,0,0,1,.109-.057h.309v2.577h2.134v.491H347.94v4.572a1.3,1.3,0,0,0,.07.474.869.869,0,0,0,.2.326.777.777,0,0,0,.283.191,1.173,1.173,0,0,0,.382.07.974.974,0,0,0,.4-.07,1.863,1.863,0,0,0,.313-.165.991.991,0,0,0,.2-.148.213.213,0,0,1,.135-.065.135.135,0,0,1,.109.052l.178.3a1.934,1.934,0,0,1-.652.435,2.2,2.2,0,0,1-.826.174A1.438,1.438,0,0,1,347.67,204.059Z" transform="translate(-195.706 -110.37)"/><path class="e" d="M363.988,203.335v.269H361.38v-.269c0-.148.1-.23.269-.243h.313c.109,0,.243-.03.4-.03v-5.672h-.708a.236.236,0,0,1-.269-.243v-.269h1.625v6.211h.708A.241.241,0,0,1,363.988,203.335Zm-1.843-8.575a.6.6,0,0,1-.056-.23.56.56,0,0,1,.056-.23.5.5,0,0,1,.122-.191.553.553,0,0,1,.187-.135.587.587,0,0,1,.23-.043.6.6,0,0,1,.235.043.552.552,0,0,1,.187.135.53.53,0,0,1,.135.191.617.617,0,0,1,.056.23.6.6,0,0,1-.056.23.552.552,0,0,1-.135.187.591.591,0,0,1-.187.126.543.543,0,0,1-.465,0,.591.591,0,0,1-.187-.126A.512.512,0,0,1,362.145,194.76Z" transform="translate(-204.318 -109.647)"/><path class="e" d="M380.616,207.043v.269h-1.63V203a2.347,2.347,0,0,0-.435-1.5,1.612,1.612,0,0,0-1.33-.53,2.325,2.325,0,0,0-1.234.339,3.689,3.689,0,0,0-1.017.939v4.516h.721a.226.226,0,0,1,.256.243v.269H373.34v-.269c0-.148.078-.23.256-.243h.313c.109,0,.243-.03.4-.03V201.1h-.687a.224.224,0,0,1-.256-.243V200.6h1.33c.122,0,.187.052.2.161l.056,1.017a3.954,3.954,0,0,1,1.069-.934,2.76,2.76,0,0,1,1.373-.352,2.482,2.482,0,0,1,.978.174,1.934,1.934,0,0,1,.7.5,2.129,2.129,0,0,1,.435.8,3.614,3.614,0,0,1,.148,1.06V206.8h.7A.233.233,0,0,1,380.616,207.043Z" transform="translate(-211.08 -113.355)"/><path class="e" d="M399.095,200.491a2.286,2.286,0,0,1,.682.3h1.738v.23c0,.109-.065.165-.191.178l-1.03.083a2.173,2.173,0,0,1,.3.582,2.39,2.39,0,0,1,.1.691,2.094,2.094,0,0,1-.178.869,1.907,1.907,0,0,1-.487.678,2.29,2.29,0,0,1-.761.435,2.851,2.851,0,0,1-.978.148,2.886,2.886,0,0,1-1.056-.161,1.391,1.391,0,0,0-.435.378.77.77,0,0,0-.165.435.543.543,0,0,0,.2.435,1.385,1.385,0,0,0,.543.23,3.842,3.842,0,0,0,.761.083c.282,0,.582.039.869.056s.582.039.869.078a2.646,2.646,0,0,1,.774.217,1.382,1.382,0,0,1,.543.435,1.243,1.243,0,0,1,.191.734,1.681,1.681,0,0,1-.2.8,2.107,2.107,0,0,1-.608.691,3.146,3.146,0,0,1-.952.474,4.186,4.186,0,0,1-1.273.191,4.845,4.845,0,0,1-1.252-.148,3.04,3.04,0,0,1-.9-.4,1.686,1.686,0,0,1-.543-.569,1.447,1.447,0,0,1-.187-.7,1.364,1.364,0,0,1,.352-.926,2.251,2.251,0,0,1,.978-.6,1.3,1.3,0,0,1-.543-.326.834.834,0,0,1-.191-.6.778.778,0,0,1,.057-.3,1.531,1.531,0,0,1,.161-.313,1.2,1.2,0,0,1,.256-.282,1.624,1.624,0,0,1,.356-.248,1.921,1.921,0,0,1-.748-.743,2.12,2.12,0,0,1-.274-1.073,2.383,2.383,0,0,1,.178-.9,1.739,1.739,0,0,1,.487-.678,2.333,2.333,0,0,1,.761-.435,2.874,2.874,0,0,1,.991-.161A2.943,2.943,0,0,1,399.095,200.491Zm1.521,6.7a.943.943,0,0,0-.435-.3,2.92,2.92,0,0,0-.652-.161c-.243-.03-.487-.043-.761-.057l-.787-.039a6.168,6.168,0,0,1-.743-.083,4.29,4.29,0,0,0-.491.23,1.66,1.66,0,0,0-.365.3,1.056,1.056,0,0,0-.243.365,1.1,1.1,0,0,0-.1.435.973.973,0,0,0,.148.556,1.529,1.529,0,0,0,.435.435,2.491,2.491,0,0,0,.735.3,4.344,4.344,0,0,0,.978.109,3.783,3.783,0,0,0,.96-.109,2.938,2.938,0,0,0,.774-.326,1.677,1.677,0,0,0,.517-.517,1.13,1.13,0,0,0,.191-.626A.787.787,0,0,0,400.616,207.193Zm-1.56-3.042a1.426,1.426,0,0,0,.569-.352,1.474,1.474,0,0,0,.352-.53,2.06,2.06,0,0,0,0-1.4,1.265,1.265,0,0,0-.365-.53,1.769,1.769,0,0,0-.569-.352,2.148,2.148,0,0,0-.761-.122,2.218,2.218,0,0,0-.761.122,1.7,1.7,0,0,0-.582.352,1.3,1.3,0,0,0-.352.53,1.945,1.945,0,0,0-.122.7,1.8,1.8,0,0,0,.1.674,1.418,1.418,0,0,0,.352.53,1.573,1.573,0,0,0,.582.352,2.217,2.217,0,0,0,.761.122,2.277,2.277,0,0,0,.791-.135Z" transform="translate(-223.591 -113.287)"/><path class="a" d="M368.882,137.78c-.343.317-.352.3-.352.3a6.094,6.094,0,0,1-3.4,1.421c-1.765,0-2.078-1.486-2.078-2.382,0-2.008.352-5.524.656-8.6.044-.4.087-.787.109-1.156.13-1.3.239-2.447.283-3.32h.03c0-.435.043-.808.043-1.091,0-5.263-3.36-8.406-9.014-8.406-2.751,0-10,4.19-10.283,4.346l-.3.2.9,3.164.743.461.239-.243c.043,0,3.32-2.947,7.1-2.947,3.207,0,4.976,2.138,4.976,6.085l-3.142.982q-.984.293-1.943.587l-6.354,1.964a2.056,2.056,0,0,0-.569.265c-1.834,1.069-3.042,4.694-3.042,7.05a7.956,7.956,0,0,0,8.34,8.1c1.791,0,5-2.882,6.658-4.52.526,3.125,2.547,4.529,5.885,4.529h.13c2.629,0,5.515-4.724,5.6-4.9l.174-.283C370.56,138.9,369.525,137.159,368.882,137.78Zm-10.866-1.026c-1.638,1.569-3.777,2.708-5.176,2.708a3.621,3.621,0,0,1-3.8-3.69c0-.765.261-2.947,1.465-3.342l4.407-1.7c1.16-.435,2.36-.9,3.538-1.352Z" transform="translate(-194.192 -64.767)"/><path class="a" d="M40.6,110.843c-.256-.283-.565-.5-.843-.761a.435.435,0,0,0-.317-.113c-.474.03-.943.061-1.417.074-1.169.043-2.338.1-3.507.2l-3.1.2C28.04,99.1,24.9,88.116,24.854,88.008l-.065-.348H23.92L19.7,88.794l-8.727,22.917c-1.951.122-3.212.2-3.268.191a.6.6,0,0,0-.661.4,2.9,2.9,0,0,0-.222,1.1,2.286,2.286,0,0,0,.522,1.712,9.256,9.256,0,0,1,.717.978,1.374,1.374,0,0,1,.174.4c.039.143.07.161.213.113l.691-.1-1.534,4.02c-.083.265-.156.522-.226.774-1.526,3.52-2.669,6.154-2.712,6.232a.6.6,0,0,0,.091.748,2.772,2.772,0,0,0,.869.7c.552.326,3.042.982,3.586-.026,0,0,.117-.365.326-.978,1-2.386,3.451-9.483,4.368-12.169,3.52-.5,8.258-1.173,12.682-1.795,2.2,8.944,4.3,16.95,4.316,17.037.183,1.126,4.033.926,4.829.565a3.829,3.829,0,0,0,1.3-.808.808.808,0,0,0,.191-1.021c-.1-.239-3.225-10.639-5-16.568l7.028-.987a5.3,5.3,0,0,0,.648-.109,5.768,5.768,0,0,0,.808-.2c.2-.07.243-.143.239-.361A1.1,1.1,0,0,0,40.6,110.843ZM21.1,95.631,25.68,110.8l-10.179.63Z" transform="translate(-2.589 -49.564)"/><path class="a" d="M232.523,85.68a2.664,2.664,0,1,1-1.891.779A2.673,2.673,0,0,1,232.523,85.68Zm0,4.885a2.217,2.217,0,1,0-2.217-2.217A2.217,2.217,0,0,0,232.523,90.565Zm-1.2-1.234c.313,0,.326-.117.326-.5V87.379c0-.2-.039-.235-.156-.235h-.143l-.026-.052.039-.222h.73l.409-.026c.656,0,1.06.261,1.06.721a.9.9,0,0,1-.643.861l.382.561c.182.278.352.435.535.435l.039.052c0,.222-.169.222-.508.222-.169,0-.326-.117-.487-.435l-.378-.721h-.33v.435c0,.313,0,.365.313.365l.026.052-.026.226h-.591c-.235,0-.591.026-.591.026Zm.869-1.152c.1,0,.252.026.382.039a.569.569,0,0,0,.4-.548c0-.369-.261-.5-.682-.5-.065,0-.074.026-.074.1-.022.3-.039.6-.039.9Z" transform="translate(-129.953 -48.444)"/></g></g></g></g></svg>